<svg version="1.1" xmlns="http://www.w3.org/2000/svg" xmlns:xlink="http://www.w3.org/1999/xlink" xml:space="preserve">
    <symbol id="link" viewBox="0 0 24 24">
        <path d="M10.59,13.41C11,13.8 11,14.44 10.59,14.83C10.2,15.22 9.56,15.22 9.17,14.83C7.22,12.88 7.22,9.71 9.17,7.76V7.76L12.71,4.22C14.66,2.27 17.83,2.27 19.78,4.22C21.73,6.17 21.73,9.34 19.78,11.29L18.29,12.78C18.3,11.96 18.17,11.14 17.89,10.36L18.36,9.88C19.54,8.71 19.54,6.81 18.36,5.64C17.19,4.46 15.29,4.46 14.12,5.64L10.59,9.17C9.41,10.34 9.41,12.24 10.59,13.41M13.41,9.17C13.8,8.78 14.44,8.78 14.83,9.17C16.78,11.12 16.78,14.29 14.83,16.24V16.24L11.29,19.78C9.34,21.73 6.17,21.73 4.22,19.78C2.27,17.83 2.27,14.66 4.22,12.71L5.71,11.22C5.7,12.04 5.83,12.86 6.11,13.65L5.64,14.12C4.46,15.29 4.46,17.19 5.64,18.36C6.81,19.54 8.71,19.54 9.88,18.36L13.41,14.83C14.59,13.66 14.59,11.76 13.41,10.59C13,10.2 13,9.56 13.41,9.17Z" />
    </symbol>

    <symbol id="close" viewBox="0 0 24 24">
        <path d="M19,6.41L17.59,5L12,10.59L6.41,5L5,6.41L10.59,12L5,17.59L6.41,19L12,13.41L17.59,19L19,17.59L13.41,12L19,6.41Z" />
    </symbol>

    <symbol id="pin" viewBox="0 0 24 24">
        <path d="M16,12V4H17V2H7V4H8V12L6,14V16H11.2V22H12.8V16H18V14L16,12Z" />
    </symbol>

    <symbol id="pin-off" viewBox="0 0 24 24">
        <path d="M2,5.27L3.28,4L20,20.72L18.73,22L12.8,16.07V22H11.2V16H6V14L8,12V11.27L2,5.27M16,12L18,14V16H17.82L8,6.18V4H7V2H17V4H16V12Z" />
    </symbol>

    <symbol id="desktop" viewBox="0 0 24 24">
        <path d="M21,14H3V4H21M21,2H3C1.89,2 1,2.89 1,4V16A2,2 0 0,0 3,18H10L8,21V22H16V21L14,18H21A2,2 0 0,0 23,16V4C23,2.89 22.1,2 21,2Z" />
    </symbol>

    <symbol id="phone" viewBox="0 0 24 24">
        <path d="M17.25,18H6.75V4H17.25M14,21H10V20H14M16,1H8A3,3 0 0,0 5,4V20A3,3 0 0,0 8,23H16A3,3 0 0,0 19,20V4A3,3 0 0,0 16,1Z" />
    </symbol>

    <symbol id="tablet" viewBox="0 0 24 24">
        <path d="M19,19H4V3H19M11.5,23A1.5,1.5 0 0,1 10,21.5A1.5,1.5 0 0,1 11.5,20A1.5,1.5 0 0,1 13,21.5A1.5,1.5 0 0,1 11.5,23M18.5,0H4.5A2.5,2.5 0 0,0 2,2.5V21.5A2.5,2.5 0 0,0 4.5,24H18.5A2.5,2.5 0 0,0 21,21.5V2.5A2.5,2.5 0 0,0 18.5,0Z" />
    </symbol>
</svg>
