<svg xmlns="http://www.w3.org/2000/svg" xmlns:xlink="http://www.w3.org/1999/xlink"><symbol viewBox="0 0 21 11" id="icon_arrow"><path fill="none" d="M0 5.5h20.46M15.03 11l5.27-5.5L15.03 0"/></symbol><symbol viewBox="0 0 16 16" id="icon_close"><path d="M15.15 15.85L8 8.71.85 15.85l-.7-.7L7.29 8 .15.85l.7-.7L8 7.29 15.15.15l.7.7L8.71 8l7.14 7.15-.7.7"/></symbol><symbol viewBox="0 0 10 10" id="icon_filter-toggle"><path d="M4 1v1H3V1h1m1-1H2v3h3V0zm5 1H5v1h5V1zM2 1H0v1h2V1zm8 7H8v1h2V8zM5 8H0v1h5V8zm2 0v1H6V8h1m1-1H5v3h3V7z"/></symbol><symbol viewBox="0 0 10 10" id="icon_sort"><path d="M0 10h1V0H0zm4 0h1V4H4zm4-3v3h1V7z"/></symbol></svg>